<svg width="155" height="48" viewBox="0 0 155 48" fill="none" xmlns="http://www.w3.org/2000/svg">
<path d="M10.0489 8.68435C9.99913 7.81323 10.0088 6.84528 10.0308 6.10336C10.0308 6.10322 10.0308 6.10308 10.0308 6.10293L10.0308 6.10293C10.0309 6.09849 10.031 6.09409 10.0312 6.08973C10.035 6.0918 10.0389 6.09389 10.0428 6.09599C10.6963 6.44798 11.5397 6.92363 12.2693 7.40237C12.6347 7.64208 12.9597 7.87487 13.214 8.08673C13.4836 8.31136 13.6162 8.46581 13.66 8.54165C13.7038 8.6175 13.7712 8.80951 13.831 9.15533C13.8873 9.48149 13.9264 9.87936 13.9513 10.3156C14.0011 11.1869 13.9913 12.1551 13.9694 12.897C13.9693 12.9015 13.9691 12.9059 13.969 12.9102C13.9652 12.9082 13.9613 12.9061 13.9574 12.904C13.3038 12.552 12.4605 12.0763 11.7308 11.5976C11.3655 11.3579 11.0405 11.1251 10.7862 10.9132C10.5165 10.6886 10.384 10.5342 10.3402 10.4583C10.2964 10.3825 10.2289 10.1905 10.1692 9.84464C10.1129 9.51849 10.0738 9.12062 10.0489 8.68435ZM9.69143 5.91842C9.69142 5.9184 9.69198 5.91856 9.69316 5.91896L9.69143 5.91842ZM14.3088 13.0816C14.3088 13.0816 14.3082 13.0814 14.307 13.081L14.3088 13.0816Z" stroke="#0165FF" stroke-width="1.5"/>
<circle cx="12" cy="9.5" r="8" stroke="#0165FF" stroke-width="1.5"/>
<path d="M41.58 9.704C42.052 9.792 42.44 10.028 42.744 10.412C43.048 10.796 43.2 11.236 43.2 11.732C43.2 12.18 43.088 12.576 42.864 12.92C42.648 13.256 42.332 13.52 41.916 13.712C41.5 13.904 41.008 14 40.44 14H36.828V5.624H40.284C40.852 5.624 41.34 5.716 41.748 5.9C42.164 6.084 42.476 6.34 42.684 6.668C42.9 6.996 43.008 7.368 43.008 7.784C43.008 8.272 42.876 8.68 42.612 9.008C42.356 9.336 42.012 9.568 41.58 9.704ZM38.508 9.08H40.044C40.444 9.08 40.752 8.992 40.968 8.816C41.184 8.632 41.292 8.372 41.292 8.036C41.292 7.7 41.184 7.44 40.968 7.256C40.752 7.072 40.444 6.98 40.044 6.98H38.508V9.08ZM40.2 12.632C40.608 12.632 40.924 12.536 41.148 12.344C41.38 12.152 41.496 11.88 41.496 11.528C41.496 11.168 41.376 10.888 41.136 10.688C40.896 10.48 40.572 10.376 40.164 10.376H38.508V12.632H40.2ZM46.0749 5.624V10.808C46.0749 11.376 46.2229 11.812 46.5189 12.116C46.8149 12.412 47.2309 12.56 47.7669 12.56C48.3109 12.56 48.7309 12.412 49.0269 12.116C49.3229 11.812 49.4709 11.376 49.4709 10.808V5.624H51.1629V10.796C51.1629 11.508 51.0069 12.112 50.6949 12.608C50.3909 13.096 49.9789 13.464 49.4589 13.712C48.9469 13.96 48.3749 14.084 47.7429 14.084C47.1189 14.084 46.5509 13.96 46.0389 13.712C45.5349 13.464 45.1349 13.096 44.8389 12.608C44.5429 12.112 44.3949 11.508 44.3949 10.796V5.624H46.0749ZM55.5581 14.084C54.9741 14.084 54.4461 13.984 53.9741 13.784C53.5101 13.584 53.1421 13.296 52.8701 12.92C52.5981 12.544 52.4581 12.1 52.4501 11.588H54.2501C54.2741 11.932 54.3941 12.204 54.6101 12.404C54.8341 12.604 55.1381 12.704 55.5221 12.704C55.9141 12.704 56.2221 12.612 56.4461 12.428C56.6701 12.236 56.7821 11.988 56.7821 11.684C56.7821 11.436 56.7061 11.232 56.5541 11.072C56.4021 10.912 56.2101 10.788 55.9781 10.7C55.7541 10.604 55.4421 10.5 55.0421 10.388C54.4981 10.228 54.0541 10.072 53.7101 9.92C53.3741 9.76 53.0821 9.524 52.8341 9.212C52.5941 8.892 52.4741 8.468 52.4741 7.94C52.4741 7.444 52.5981 7.012 52.8461 6.644C53.0941 6.276 53.4421 5.996 53.8901 5.804C54.3381 5.604 54.8501 5.504 55.4261 5.504C56.2901 5.504 56.9901 5.716 57.5261 6.14C58.0701 6.556 58.3701 7.14 58.4261 7.892H56.5781C56.5621 7.604 56.4381 7.368 56.2061 7.184C55.9821 6.992 55.6821 6.896 55.3061 6.896C54.9781 6.896 54.7141 6.98 54.5141 7.148C54.3221 7.316 54.2261 7.56 54.2261 7.88C54.2261 8.104 54.2981 8.292 54.4421 8.444C54.5941 8.588 54.7781 8.708 54.9941 8.804C55.2181 8.892 55.5301 8.996 55.9301 9.116C56.4741 9.276 56.9181 9.436 57.2621 9.596C57.6061 9.756 57.9021 9.996 58.1501 10.316C58.3981 10.636 58.5221 11.056 58.5221 11.576C58.5221 12.024 58.4061 12.44 58.1741 12.824C57.9421 13.208 57.6021 13.516 57.1541 13.748C56.7061 13.972 56.1741 14.084 55.5581 14.084ZM61.5386 5.624V14H59.8586V5.624H61.5386ZM70.2425 14H68.5625L64.7585 8.252V14H63.0785V5.612H64.7585L68.5625 11.372V5.612H70.2425V14ZM73.4627 6.98V9.08H76.2827V10.412H73.4627V12.632H76.6427V14H71.7827V5.612H76.6427V6.98H73.4627ZM80.9414 14.084C80.3574 14.084 79.8294 13.984 79.3574 13.784C78.8934 13.584 78.5254 13.296 78.2534 12.92C77.9814 12.544 77.8414 12.1 77.8334 11.588H79.6334C79.6574 11.932 79.7774 12.204 79.9934 12.404C80.2174 12.604 80.5214 12.704 80.9054 12.704C81.2974 12.704 81.6054 12.612 81.8294 12.428C82.0534 12.236 82.1654 11.988 82.1654 11.684C82.1654 11.436 82.0894 11.232 81.9374 11.072C81.7854 10.912 81.5934 10.788 81.3614 10.7C81.1374 10.604 80.8254 10.5 80.4254 10.388C79.8814 10.228 79.4374 10.072 79.0934 9.92C78.7574 9.76 78.4654 9.524 78.2174 9.212C77.9774 8.892 77.8574 8.468 77.8574 7.94C77.8574 7.444 77.9814 7.012 78.2294 6.644C78.4774 6.276 78.8254 5.996 79.2734 5.804C79.7214 5.604 80.2334 5.504 80.8094 5.504C81.6734 5.504 82.3734 5.716 82.9094 6.14C83.4534 6.556 83.7534 7.14 83.8094 7.892H81.9614C81.9454 7.604 81.8214 7.368 81.5894 7.184C81.3654 6.992 81.0654 6.896 80.6894 6.896C80.3614 6.896 80.0974 6.98 79.8974 7.148C79.7054 7.316 79.6094 7.56 79.6094 7.88C79.6094 8.104 79.6814 8.292 79.8254 8.444C79.9774 8.588 80.1614 8.708 80.3774 8.804C80.6014 8.892 80.9134 8.996 81.3134 9.116C81.8574 9.276 82.3014 9.436 82.6454 9.596C82.9894 9.756 83.2854 9.996 83.5334 10.316C83.7814 10.636 83.9054 11.056 83.9054 11.576C83.9054 12.024 83.7894 12.44 83.5574 12.824C83.3254 13.208 82.9854 13.516 82.5374 13.748C82.0894 13.972 81.5574 14.084 80.9414 14.084ZM88.1339 14.084C87.5499 14.084 87.0219 13.984 86.5499 13.784C86.0859 13.584 85.7179 13.296 85.4459 12.92C85.1739 12.544 85.0339 12.1 85.0259 11.588H86.8259C86.8499 11.932 86.9699 12.204 87.1859 12.404C87.4099 12.604 87.7139 12.704 88.0979 12.704C88.4899 12.704 88.7979 12.612 89.0219 12.428C89.2459 12.236 89.3579 11.988 89.3579 11.684C89.3579 11.436 89.2819 11.232 89.1299 11.072C88.9779 10.912 88.7859 10.788 88.5539 10.7C88.3299 10.604 88.0179 10.5 87.6179 10.388C87.0739 10.228 86.6299 10.072 86.2859 9.92C85.9499 9.76 85.6579 9.524 85.4099 9.212C85.1699 8.892 85.0499 8.468 85.0499 7.94C85.0499 7.444 85.1739 7.012 85.4219 6.644C85.6699 6.276 86.0179 5.996 86.4659 5.804C86.9139 5.604 87.4259 5.504 88.0019 5.504C88.8659 5.504 89.5659 5.716 90.1019 6.14C90.6459 6.556 90.9459 7.14 91.0019 7.892H89.1539C89.1379 7.604 89.0139 7.368 88.7819 7.184C88.5579 6.992 88.2579 6.896 87.8819 6.896C87.5539 6.896 87.2899 6.98 87.0899 7.148C86.8979 7.316 86.8019 7.56 86.8019 7.88C86.8019 8.104 86.8739 8.292 87.0179 8.444C87.1699 8.588 87.3539 8.708 87.5699 8.804C87.7939 8.892 88.1059 8.996 88.5059 9.116C89.0499 9.276 89.4939 9.436 89.8379 9.596C90.1819 9.756 90.4779 9.996 90.7259 10.316C90.9739 10.636 91.0979 11.056 91.0979 11.576C91.0979 12.024 90.9819 12.44 90.7499 12.824C90.5179 13.208 90.1779 13.516 89.7299 13.748C89.2819 13.972 88.7499 14.084 88.1339 14.084ZM94.7658 9.8C94.7658 8.976 94.9498 8.24 95.3178 7.592C95.6938 6.936 96.2018 6.428 96.8418 6.068C97.4898 5.7 98.2138 5.516 99.0138 5.516C99.9498 5.516 100.77 5.756 101.474 6.236C102.178 6.716 102.67 7.38 102.95 8.228H101.018C100.826 7.828 100.554 7.528 100.202 7.328C99.8578 7.128 99.4578 7.028 99.0018 7.028C98.5138 7.028 98.0778 7.144 97.6938 7.376C97.3178 7.6 97.0218 7.92 96.8058 8.336C96.5978 8.752 96.4938 9.24 96.4938 9.8C96.4938 10.352 96.5978 10.84 96.8058 11.264C97.0218 11.68 97.3178 12.004 97.6938 12.236C98.0778 12.46 98.5138 12.572 99.0018 12.572C99.4578 12.572 99.8578 12.472 100.202 12.272C100.554 12.064 100.826 11.76 101.018 11.36H102.95C102.67 12.216 102.178 12.884 101.474 13.364C100.778 13.836 99.9578 14.072 99.0138 14.072C98.2138 14.072 97.4898 13.892 96.8418 13.532C96.2018 13.164 95.6938 12.656 95.3178 12.008C94.9498 11.36 94.7658 10.624 94.7658 9.8ZM108.153 14.084C107.369 14.084 106.649 13.9 105.993 13.532C105.337 13.164 104.817 12.656 104.433 12.008C104.049 11.352 103.857 10.612 103.857 9.788C103.857 8.972 104.049 8.24 104.433 7.592C104.817 6.936 105.337 6.424 105.993 6.056C106.649 5.688 107.369 5.504 108.153 5.504C108.945 5.504 109.665 5.688 110.313 6.056C110.969 6.424 111.485 6.936 111.861 7.592C112.245 8.24 112.437 8.972 112.437 9.788C112.437 10.612 112.245 11.352 111.861 12.008C111.485 12.656 110.969 13.164 110.313 13.532C109.657 13.9 108.937 14.084 108.153 14.084ZM108.153 12.584C108.657 12.584 109.101 12.472 109.485 12.248C109.869 12.016 110.169 11.688 110.385 11.264C110.601 10.84 110.709 10.348 110.709 9.788C110.709 9.228 110.601 8.74 110.385 8.324C110.169 7.9 109.869 7.576 109.485 7.352C109.101 7.128 108.657 7.016 108.153 7.016C107.649 7.016 107.201 7.128 106.809 7.352C106.425 7.576 106.125 7.9 105.909 8.324C105.693 8.74 105.585 9.228 105.585 9.788C105.585 10.348 105.693 10.84 105.909 11.264C106.125 11.688 106.425 12.016 106.809 12.248C107.201 12.472 107.649 12.584 108.153 12.584ZM120.731 14H119.051L115.247 8.252V14H113.567V5.612H115.247L119.051 11.372V5.612H120.731V14ZM127.971 5.624V6.98H125.739V14H124.059V6.98H121.827V5.624H127.971ZM130.757 6.98V9.08H133.577V10.412H130.757V12.632H133.937V14H129.077V5.612H133.937V6.98H130.757ZM140.359 14L138.547 11.18L136.903 14H135.007L137.647 9.776L134.971 5.624H136.903L138.715 8.432L140.347 5.624H142.243L139.615 9.836L142.291 14H140.359ZM149.15 5.624V6.98H146.918V14H145.238V6.98H143.006V5.624H149.15Z" fill="#0165FF"/>
<g filter="url(#filter0_d_2581_161)">
<path d="M151 43H4V41H151V43Z" fill="#0165FF"/>
</g>
<defs>
<filter id="filter0_d_2581_161" x="0" y="38" width="155" height="10" filterUnits="userSpaceOnUse" color-interpolation-filters="sRGB">
<feFlood flood-opacity="0" result="BackgroundImageFix"/>
<feColorMatrix in="SourceAlpha" type="matrix" values="0 0 0 0 0 0 0 0 0 0 0 0 0 0 0 0 0 0 127 0" result="hardAlpha"/>
<feOffset dy="1"/>
<feGaussianBlur stdDeviation="2"/>
<feComposite in2="hardAlpha" operator="out"/>
<feColorMatrix type="matrix" values="0 0 0 0 0.00392157 0 0 0 0 0.396078 0 0 0 0 1 0 0 0 0.22 0"/>
<feBlend mode="normal" in2="BackgroundImageFix" result="effect1_dropShadow_2581_161"/>
<feBlend mode="normal" in="SourceGraphic" in2="effect1_dropShadow_2581_161" result="shape"/>
</filter>
</defs>
</svg>
